<svg xmlns="http://www.w3.org/2000/svg" style="display:none">

  <symbol id="home" viewBox="0 0 24 24">
    <path fill="currentColor"
          d="M10 20v-6h4v6h5v-8h3L12 3 2 12h3v8z"/>
  </symbol>

  <symbol id="menu" viewBox="0 0 24 24">
    <path fill="currentColor"
          d="M3 6h18M3 12h18M3 18h18"/>
  </symbol>

  <symbol id="close" viewBox="0 0 24 24">
    <path fill="currentColor"
          d="M6 6l12 12M6 18L18 6"/>
  </symbol>

  <symbol id="email" viewBox="0 0 24 24">
    <path fill="currentColor" 
        d="M20 4H4c-1.1 0-1.99.9-1.99 2L2 18c0 1.1.9 2 2 2h16c1.1 0 2-.9 2-2V6c0-1.1-.9-2-2-2zm0 4l-8 5-8-5V6l8 5 8-5v2z" />
  </symbol>

  <symbol id="lock" viewBox="0 0 24 24">
    <path fill="currentColor" d="M6 22q-.825 0-1.412-.587T4 20V10q0-.825.588-1.412T6 8h1V6q0-2.075 1.463-3.537T12 1t3.538 1.463T17 6v2h1q.825 0 1.413.588T20 10v10q0 .825-.587 1.413T18 22zm7.413-5.587Q14 15.825 14 15t-.587-1.412T12 13t-1.412.588T10 15t.588 1.413T12 17t1.413-.587M9 8h6V6q0-1.25-.875-2.125T12 3t-2.125.875T9 6z"/>
  </symbol>

  <symbol id="visibility" viewBox="0 0 24 24">
    <path fill="currentColor" d="M15.188 14.688Q16.5 13.375 16.5 11.5t-1.312-3.187T12 7T8.813 8.313T7.5 11.5t1.313 3.188T12 16t3.188-1.312m-5.1-1.276Q9.3 12.625 9.3 11.5t.788-1.912T12 8.8t1.913.788t.787 1.912t-.787 1.913T12 14.2t-1.912-.787m-4.2 3.787q-2.763-1.8-4.363-4.75q-.125-.225-.187-.462t-.063-.488t.063-.488t.187-.462q1.6-2.95 4.363-4.75T12 4t6.113 1.8t4.362 4.75q.125.225.188.463t.062.487t-.062.488t-.188.462q-1.6 2.95-4.362 4.75T12 19t-6.113-1.8"/>
  </symbol>

  <symbol id="visibility_off" viewBox="0 0 24 24">
    <path fill="currentColor" d="m19.1 21.9l-3.5-3.45q-.875.275-1.775.413T12 19q-3.35 0-6.125-1.8t-4.35-4.75q-.125-.225-.187-.462t-.063-.488t.063-.488t.187-.462q.55-.975 1.175-1.9T4.15 7L2.075 4.9Q1.8 4.625 1.8 4.213t.3-.713q.275-.275.7-.275t.7.275l17 17q.275.275.288.688t-.288.712q-.275.275-.7.275t-.7-.275M12 16q.275 0 .525-.025t.5-.1l-5.4-5.4q-.075.25-.1.5T7.5 11.5q0 1.875 1.313 3.188T12 16m0-12q3.35 0 6.138 1.813t4.362 4.762q.125.2.188.438t.062.487t-.05.488t-.175.437q-.475.925-1.062 1.75t-1.313 1.55q-.35.35-.825.325t-.825-.375l-2-2q-.175-.175-.225-.413t.025-.487q.1-.325.15-.625t.05-.65q0-1.875-1.312-3.187T12 7q-.35 0-.65.05t-.625.15q-.25.075-.5.025T9.8 7l-.825-.825q-.475-.475-.312-1.1t.787-.8q.625-.125 1.263-.2T12 4m1.975 5.65q.275.325.462.713t.238.812q.025.2-.15.275t-.325-.075l-2.05-2.05Q12 9.175 12.088 9t.287-.175q.475.05.875.263t.725.562"/>
  </symbol>
</svg>
