<svg xmlns="http://www.w3.org/2000/svg" style="display:none">
  <symbol id="email" viewBox="0 0 24 24">
    <path fill="currentColor" 
        d="M20 4H4c-1.1 0-1.99.9-1.99 2L2 18c0 1.1.9 2 2 2h16c1.1 0 2-.9 2-2V6c0-1.1-.9-2-2-2zm0 4l-8 5-8-5V6l8 5 8-5v2z" />
  </symbol>

  <symbol id="lock" viewBox="0 0 24 24">
    <path fill="currentColor" d="M6 22q-.825 0-1.412-.587T4 20V10q0-.825.588-1.412T6 8h1V6q0-2.075 1.463-3.537T12 1t3.538 1.463T17 6v2h1q.825 0 1.413.588T20 10v10q0 .825-.587 1.413T18 22zm7.413-5.587Q14 15.825 14 15t-.587-1.412T12 13t-1.412.588T10 15t.588 1.413T12 17t1.413-.587M9 8h6V6q0-1.25-.875-2.125T12 3t-2.125.875T9 6z"/>
  </symbol>

  <symbol id="visibility" viewBox="0 0 24 24">
    <path fill="currentColor" d="M15.188 14.688Q16.5 13.375 16.5 11.5t-1.312-3.187T12 7T8.813 8.313T7.5 11.5t1.313 3.188T12 16t3.188-1.312m-5.1-1.276Q9.3 12.625 9.3 11.5t.788-1.912T12 8.8t1.913.788t.787 1.912t-.787 1.913T12 14.2t-1.912-.787m-4.2 3.787q-2.763-1.8-4.363-4.75q-.125-.225-.187-.462t-.063-.488t.063-.488t.187-.462q1.6-2.95 4.363-4.75T12 4t6.113 1.8t4.362 4.75q.125.225.188.463t.062.487t-.062.488t-.188.462q-1.6 2.95-4.362 4.75T12 19t-6.113-1.8"/>
  </symbol>

  <symbol id="visibility_off" viewBox="0 0 24 24">
    <path fill="currentColor" d="m19.1 21.9l-3.5-3.45q-.875.275-1.775.413T12 19q-3.35 0-6.125-1.8t-4.35-4.75q-.125-.225-.187-.462t-.063-.488t.063-.488t.187-.462q.55-.975 1.175-1.9T4.15 7L2.075 4.9Q1.8 4.625 1.8 4.213t.3-.713q.275-.275.7-.275t.7.275l17 17q.275.275.288.688t-.288.712q-.275.275-.7.275t-.7-.275M12 16q.275 0 .525-.025t.5-.1l-5.4-5.4q-.075.25-.1.5T7.5 11.5q0 1.875 1.313 3.188T12 16m0-12q3.35 0 6.138 1.813t4.362 4.762q.125.2.188.438t.062.487t-.05.488t-.175.437q-.475.925-1.062 1.75t-1.313 1.55q-.35.35-.825.325t-.825-.375l-2-2q-.175-.175-.225-.413t.025-.487q.1-.325.15-.625t.05-.65q0-1.875-1.312-3.187T12 7q-.35 0-.65.05t-.625.15q-.25.075-.5.025T9.8 7l-.825-.825q-.475-.475-.312-1.1t.787-.8q.625-.125 1.263-.2T12 4m1.975 5.65q.275.325.462.713t.238.812q.025.2-.15.275t-.325-.075l-2.05-2.05Q12 9.175 12.088 9t.287-.175q.475.05.875.263t.725.562"/>
  </symbol>

  <symbol id="error" viewBox="0 0 24 24">
    <path fill="currentColor" d="M12.713 16.713Q13 16.425 13 16t-.288-.712T12 15t-.712.288T11 16t.288.713T12 17t.713-.288m0-4Q13 12.425 13 12V8q0-.425-.288-.712T12 7t-.712.288T11 8v4q0 .425.288.713T12 13t.713-.288M12 22q-2.075 0-3.9-.788t-3.175-2.137T2.788 15.9T2 12t.788-3.9t2.137-3.175T8.1 2.788T12 2t3.9.788t3.175 2.137T21.213 8.1T22 12t-.788 3.9t-2.137 3.175t-3.175 2.138T12 22"/>
  </symbol>

  <symbol id="mark_email_read" viewBox="0 0 24 24">
    <path fill="currentColor" d="M4 20q-.825 0-1.412-.587T2 18V6q0-.825.588-1.412T4 4h16q.825 0 1.413.588T22 6v3.525q0 .4-.15.763t-.425.637l-5.45 5.45l-1.45-1.45q-.575-.575-1.425-.575t-1.425.575L10.3 16.3q-.6.6-.488 1.475t.688 1.55q.175.2.075.438T10.2 20zm8-9L5.3 6.8q-.425-.275-.862-.025T4 7.525q0 .225.1.413t.3.312l7.075 4.425q.25.15.525.15t.525-.15L19.6 8.25q.2-.125.3-.312t.1-.413q0-.5-.437-.75T18.7 6.8zm3.95 8.2l4.95-4.95q.275-.275.7-.275t.7.275t.275.7t-.275.7l-5.65 5.65q-.15.15-.325.225t-.375.075t-.375-.075t-.325-.225l-2.85-2.85q-.275-.275-.275-.7t.275-.7t.7-.275t.7.275z"/>
  </symbol>

  <symbol id="refresh" viewBox="0 0 24 24">
    <path fill="currentColor" d="M12 20q-3.35 0-5.675-2.325T4 12t2.325-5.675T12 4q1.725 0 3.3.712T18 6.75V5q0-.425.288-.712T19 4t.713.288T20 5v5q0 .425-.288.713T19 11h-5q-.425 0-.712-.288T13 10t.288-.712T14 9h3.2q-.8-1.4-2.187-2.2T12 6Q9.5 6 7.75 7.75T6 12t1.75 4.25T12 18q1.7 0 3.113-.862t2.187-2.313q.2-.35.563-.487t.737-.013q.4.125.575.525t-.025.75q-1.025 2-2.925 3.2T12 20"/>
  </symbol>
  
  <symbol id="check_circle" viewBox="0 0 24 24">
    <path fill="currentColor" d="m10.6 13.8l-2.15-2.15q-.275-.275-.7-.275t-.7.275t-.275.7t.275.7L9.9 15.9q.3.3.7.3t.7-.3l5.65-5.65q.275-.275.275-.7t-.275-.7t-.7-.275t-.7.275zM12 22q-2.075 0-3.9-.788t-3.175-2.137T2.788 15.9T2 12t.788-3.9t2.137-3.175T8.1 2.788T12 2t3.9.788t3.175 2.137T21.213 8.1T22 12t-.788 3.9t-2.137 3.175t-3.175 2.138T12 22"/>
  </symbol>

  <symbol id="lock_reset" viewBox="0 0 24 24">
    <path fill="currentColor" d="M21.213 15.9q-.788 1.825-2.138 3.175T15.9 21.213T12 22q-1.9 0-3.613-.675t-3.05-1.862t-2.187-2.8t-1.075-3.513q-.05-.475.225-.737t.65-.313t.725.163t.4.737q.375 3.025 2.638 5.025t5.287 2q3.35 0 5.675-2.325T20 12.025T17.675 6.35T12 4.025q-2.225 0-4.038 1.088T5.1 8H7q.425 0 .713.288T8 9t-.288.713T7 10H3q-.425 0-.712-.288T2 9V5q0-.425.288-.712T3 4t.713.288T4 5v1q1.375-1.825 3.45-2.912T12 2q2.075 0 3.9.788t3.175 2.137T21.213 8.1T22 12t-.788 3.9M10 16q-.425 0-.712-.288T9 15v-3q0-.425.288-.712T10 11v-1q0-.825.588-1.412T12 8t1.413.588T14 10v1q.425 0 .713.288T15 12v3q0 .425-.288.713T14 16zm1-5h2v-1q0-.425-.288-.712T12 9t-.712.288T11 10z"/>
  </symbol>

  <symbol id="send" viewBox="0 0 24 24">
    <path fill="currentColor" d="M3 20v-6l8-2l-8-2V4l19 8z"/>
  </symbol>

  <symbol id="arrow_back" viewBox="0 0 24 24">
    <path fill="currentColor" d="m7.825 13l4.9 4.9q.3.3.288.7t-.313.7q-.3.275-.7.288t-.7-.288l-6.6-6.6q-.15-.15-.213-.325T4.426 12t.063-.375t.212-.325l6.6-6.6q.275-.275.688-.275t.712.275q.3.3.3.713t-.3.712L7.825 11H19q.425 0 .713.288T20 12t-.288.713T19 13z"/>
  </symbol>

  <symbol id="account_balance_wallet" viewBox="0 0 24 24">
    <path fill="currentColor" d="M5 21q-.825 0-1.412-.587T3 19V5q0-.825.588-1.412T5 3h14q.825 0 1.413.588T21 5h-8q-1.775 0-2.887 1.113T9 9v6q0 1.775 1.113 2.888T13 19h8q0 .825-.587 1.413T19 21zm8-4q-.825 0-1.412-.587T11 15V9q0-.825.588-1.412T13 7h7q.825 0 1.413.588T22 9v6q0 .825-.587 1.413T20 17zm4.075-3.925Q17.5 12.65 17.5 12t-.425-1.075T16 10.5t-1.075.425T14.5 12t.425 1.075T16 13.5t1.075-.425"/>
  </symbol>

  <symbol id="expand_more" viewBox="0 0 24 24">
    <path fill="currentColor" d="M11.625 14.913q-.175-.063-.325-.213l-4.6-4.6q-.275-.275-.275-.7t.275-.7t.7-.275t.7.275l3.9 3.9l3.9-3.9q.275-.275.7-.275t.7.275t.275.7t-.275.7l-4.6 4.6q-.15.15-.325.213t-.375.062t-.375-.062"/>
  </symbol>
  
  <symbol id="person_add" viewBox="0 0 24 24">
    <path fill="currentColor" d="M18 11h-2q-.425 0-.712-.288T15 10t.288-.712T16 9h2V7q0-.425.288-.712T19 6t.713.288T20 7v2h2q.425 0 .713.288T23 10t-.288.713T22 11h-2v2q0 .425-.288.713T19 14t-.712-.288T18 13zm-11.825-.175Q5 9.65 5 8t1.175-2.825T9 4t2.825 1.175T13 8t-1.175 2.825T9 12t-2.825-1.175M1 18v-.8q0-.85.438-1.562T2.6 14.55q1.55-.775 3.15-1.162T9 13t3.25.388t3.15 1.162q.725.375 1.163 1.088T17 17.2v.8q0 .825-.587 1.413T15 20H3q-.825 0-1.412-.587T1 18"/>
  </symbol>

  <symbol id="vpn_key" viewBox="0 0 24 24">
    <path fill="currentColor" d="M7 18q-2.5 0-4.25-1.75T1 12t1.75-4.25T7 6q2.025 0 3.538 1.138T12.65 10H21q.825 0 1.413.588T23 12q0 .9-.625 1.45T21 14v2q0 .825-.587 1.413T19 18t-1.412-.587T17 16v-2h-4.35q-.6 1.725-2.113 2.863T7 18m0-4q.825 0 1.413-.587T9 12t-.587-1.412T7 10t-1.412.588T5 12t.588 1.413T7 14"/>
  </symbol>

  <symbol id="check" viewBox="0 0 24 24">
    <path fill="currentColor" d="m9.55 15.15l8.475-8.475q.3-.3.7-.3t.7.3t.3.713t-.3.712l-9.175 9.2q-.3.3-.7.3t-.7-.3L4.55 13q-.3-.3-.288-.712t.313-.713t.713-.3t.712.3z"/>
  </symbol>

  <symbol id="error_outline" viewBox="0 0 24 24">
    <path fill="currentColor" d="M12.713 16.713Q13 16.425 13 16t-.288-.712T12 15t-.712.288T11 16t.288.713T12 17t.713-.288m0-4Q13 12.425 13 12V8q0-.425-.288-.712T12 7t-.712.288T11 8v4q0 .425.288.713T12 13t.713-.288M12 22q-2.075 0-3.9-.788t-3.175-2.137T2.788 15.9T2 12t.788-3.9t2.137-3.175T8.1 2.788T12 2t3.9.788t3.175 2.137T21.213 8.1T22 12t-.788 3.9t-2.137 3.175t-3.175 2.138T12 22m0-2q3.35 0 5.675-2.325T20 12t-2.325-5.675T12 4T6.325 6.325T4 12t2.325 5.675T12 20m0-8"/>
  </symbol>

  <symbol id="info" viewBox="0 0 24 24">
    <path fill="currentColor" d="M12.713 16.713Q13 16.425 13 16v-4q0-.425-.288-.712T12 11t-.712.288T11 12v4q0 .425.288.713T12 17t.713-.288m0-8Q13 8.425 13 8t-.288-.712T12 7t-.712.288T11 8t.288.713T12 9t.713-.288M12 22q-2.075 0-3.9-.788t-3.175-2.137T2.788 15.9T2 12t.788-3.9t2.137-3.175T8.1 2.788T12 2t3.9.788t3.175 2.137T21.213 8.1T22 12t-.788 3.9t-2.137 3.175t-3.175 2.138T12 22"/>
  </symbol>

  <symbol id="login" viewBox="0 0 24 24">
    <path fill="currentColor" d="M13 21q-.425 0-.712-.288T12 20t.288-.712T13 19h6V5h-6q-.425 0-.712-.288T12 4t.288-.712T13 3h6q.825 0 1.413.588T21 5v14q0 .825-.587 1.413T19 21zm-1.825-8H4q-.425 0-.712-.288T3 12t.288-.712T4 11h7.175L9.3 9.125q-.275-.275-.275-.675t.275-.7t.7-.313t.725.288L14.3 11.3q.3.3.3.7t-.3.7l-3.575 3.575q-.3.3-.712.288T9.3 16.25q-.275-.3-.262-.712t.287-.688z"/>
  </symbol>

  <symbol id="verified" viewBox="0 0 24 24">
    <path fill="currentColor" d="M10.95 12.7L9.5 11.275Q9.225 11 8.813 11t-.713.3q-.275.275-.275.7t.275.7l2.15 2.15q.3.3.7.3t.7-.3l4.25-4.25q.3-.3.287-.7t-.287-.7q-.3-.3-.712-.312t-.713.287zm-2.8 9.05L6.7 19.3l-2.75-.6q-.375-.075-.6-.387t-.175-.688L3.45 14.8l-1.875-2.15q-.25-.275-.25-.65t.25-.65L3.45 9.2l-.275-2.825q-.05-.375.175-.688t.6-.387l2.75-.6l1.45-2.45q.2-.325.55-.438t.7.038l2.6 1.1l2.6-1.1q.35-.15.7-.038t.55.438L17.3 4.7l2.75.6q.375.075.6.388t.175.687L20.55 9.2l1.875 2.15q.25.275.25.65t-.25.65L20.55 14.8l.275 2.825q.05.375-.175.688t-.6.387l-2.75.6l-1.45 2.45q-.2.325-.55.438t-.7-.038l-2.6-1.1l-2.6 1.1q-.35.15-.7.038t-.55-.438"/>
  </symbol>

  <symbol id="account_balance" viewBox="0 0 24 24">
    <path fill="currentColor" d="M5 16v-5q0-.425.288-.712T6 10t.713.288T7 11v5q0 .425-.288.713T6 17t-.712-.288T5 16m6 0v-5q0-.425.288-.712T12 10t.713.288T13 11v5q0 .425-.288.713T12 17t-.712-.288T11 16m-8 5q-.425 0-.712-.288T2 20t.288-.712T3 19h18q.425 0 .713.288T22 20t-.288.713T21 21zm14-5v-5q0-.425.288-.712T18 10t.713.288T19 11v5q0 .425-.288.713T18 17t-.712-.288T17 16m4-8H2.9q-.375 0-.638-.262T2 7.1v-.55q0-.275.138-.475T2.5 5.75l8.6-4.3q.425-.2.9-.2t.9.2l8.55 4.275q.275.125.413.375t.137.525V7q0 .425-.287.713T21 8"/>
  </symbol>

  <symbol id="credit_card" viewBox="0 0 24 24">
    <path fill="currentColor" d="M22 6v12q0 .825-.587 1.413T20 20H4q-.825 0-1.412-.587T2 18V6q0-.825.588-1.412T4 4h16q.825 0 1.413.588T22 6M4 8h16V6H4zm0 4v6h16v-6zm0 6V6z"/>
  </symbol>

  <symbol id="add" viewBox="0 0 24 24">
    <path fill="currentColor" d="M11.288 20.713Q11 20.425 11 20v-7H4q-.425 0-.712-.288T3 12t.288-.712T4 11h7V4q0-.425.288-.712T12 3t.713.288T13 4v7h7q.425 0 .713.288T21 12t-.288.713T20 13h-7v7q0 .425-.288.713T12 21t-.712-.288"/>
  </symbol>

  <symbol id="lightbulb" viewBox="0 0 24 24">
    <path fill="currentColor" d="M10 18q-.825 0-1.412-.587T8 16v-1.25q-1.425-.975-2.212-2.5T5 9q0-2.925 2.038-4.962T12 2t4.963 2.038T19 9q0 1.725-.788 3.238T16 14.75V16q0 .825-.587 1.413T14 18zm0 4q-.425 0-.712-.288T9 21v-1h6v1q0 .425-.288.713T14 22z"/>
  </symbol>

  <symbol id="arrow_upward" viewBox="0 0 24 24">
    <path fill="currentColor" d="m11 7.825l-4.9 4.9q-.3.3-.7.288t-.7-.313q-.275-.3-.288-.7t.288-.7l6.6-6.6q.15-.15.325-.212T12 4.425t.375.063t.325.212l6.6 6.6q.275.275.275.688t-.275.712q-.3.3-.712.3t-.713-.3L13 7.825V19q0 .425-.288.713T12 20t-.712-.288T11 19z"/>
  </symbol>

  <symbol id="arrow_downward" viewBox="0 0 24 24">
    <path fill="currentColor" d="M11 16.175V5q0-.425.288-.712T12 4t.713.288T13 5v11.175l4.9-4.9q.3-.3.7-.288t.7.313q.275.3.287.7t-.287.7l-6.6 6.6q-.15.15-.325.213t-.375.062t-.375-.062t-.325-.213l-6.6-6.6q-.275-.275-.275-.687T4.7 11.3q.3-.3.713-.3t.712.3z"/>
  </symbol>

  <symbol id="info_outline" viewBox="0 0 24 24">
    <path fill="currentColor" d="M12.713 16.713Q13 16.425 13 16v-4q0-.425-.288-.712T12 11t-.712.288T11 12v4q0 .425.288.713T12 17t.713-.288m0-8Q13 8.425 13 8t-.288-.712T12 7t-.712.288T11 8t.288.713T12 9t.713-.288M12 22q-2.075 0-3.9-.788t-3.175-2.137T2.788 15.9T2 12t.788-3.9t2.137-3.175T8.1 2.788T12 2t3.9.788t3.175 2.137T21.213 8.1T22 12t-.788 3.9t-2.137 3.175t-3.175 2.138T12 22m0-2q3.35 0 5.675-2.325T20 12t-2.325-5.675T12 4T6.325 6.325T4 12t2.325 5.675T12 20m0-8"/>
  </symbol>

  <symbol id="swap_horiz" viewBox="0 0 24 24">
    <path fill="currentColor" d="M5.825 16L7.7 17.875q.275.275.275.688t-.275.712q-.3.3-.712.3t-.713-.3L2.7 15.7q-.15-.15-.213-.325T2.426 15t.063-.375t.212-.325l3.6-3.6q.3-.3.7-.287t.7.312q.275.3.288.7t-.288.7L5.825 14H12q.425 0 .713.288T13 15t-.288.713T12 16zm12.35-6H12q-.425 0-.712-.288T11 9t.288-.712T12 8h6.175L16.3 6.125q-.275-.275-.275-.687t.275-.713q.3-.3.713-.3t.712.3L21.3 8.3q.15.15.212.325t.063.375t-.063.375t-.212.325l-3.6 3.6q-.3.3-.7.288t-.7-.313q-.275-.3-.288-.7t.288-.7z"/>
  </symbol>

  <symbol id="trending_up" viewBox="0 0 24 24">
    <path fill="currentColor" d="M2.7 17.625q-.3-.3-.288-.712t.288-.688l5.275-5.35Q8.55 10.3 9.4 10.3t1.425.575l2.575 2.6l5.2-5.15H17q-.425 0-.712-.288T16 7.326t.288-.712t.712-.288h4q.425 0 .713.288t.287.712v4q0 .425-.288.713t-.712.287t-.712-.287t-.288-.713v-1.6L14.825 14.9q-.575.575-1.425.575t-1.425-.575L9.4 12.325l-5.3 5.3q-.275.275-.7.275t-.7-.275"/>
  </symbol>

  <symbol id="trending_down" viewBox="0 0 24 24">
    <path fill="currentColor" d="m18.6 16l-5.2-5.15l-2.575 2.575Q10.25 14 9.4 14t-1.425-.575L2.7 8.1q-.275-.275-.288-.687T2.7 6.7q.275-.275.7-.275t.7.275L9.4 12l2.575-2.575q.575-.575 1.425-.575t1.425.575L20 14.6V13q0-.425.288-.712T21 12t.713.288T22 13v4q0 .425-.288.713T21 18h-4q-.425 0-.712-.288T16 17t.288-.712T17 16z"/>
  </symbol>

  <symbol id="arrow_forward" viewBox="0 0 24 24">
    <path fill="currentColor" d="M16.175 13H5q-.425 0-.712-.288T4 12t.288-.712T5 11h11.175l-4.9-4.9q-.3-.3-.288-.7t.313-.7q.3-.275.7-.288t.7.288l6.6 6.6q.15.15.213.325t.062.375t-.062.375t-.213.325l-6.6 6.6q-.275.275-.687.275T11.3 19.3q-.3-.3-.3-.712t.3-.713z"/>
  </symbol>

  <symbol id="receipt_long" viewBox="0 0 24 24">
    <path fill="currentColor" d="M6 22q-1.25 0-2.125-.875T3 19v-2q0-.425.288-.712T4 16h2V2.6q0-.175.15-.238t.275.063l.725.725q.15.15.35.15t.35-.15l.8-.8Q8.8 2.2 9 2.2t.35.15l.8.8q.15.15.35.15t.35-.15l.8-.8q.15-.15.35-.15t.35.15l.8.8q.15.15.35.15t.35-.15l.8-.8q.15-.15.35-.15t.35.15l.8.8q.15.15.35.15t.35-.15l.8-.8q.15-.15.35-.15t.35.15l.8.8q.15.15.35.15t.35-.15l.725-.725q.125-.125.275-.063T21 2.6V19q0 1.25-.875 2.125T18 22zm12-2q.425 0 .713-.288T19 19V5H8v11h8q.425 0 .713.288T17 17v2q0 .425.288.713T18 20M10 7h4q.425 0 .713.288T15 8t-.288.713T14 9h-4q-.425 0-.712-.288T9 8t.288-.712T10 7m0 3h4q.425 0 .713.288T15 11t-.288.713T14 12h-4q-.425 0-.712-.288T9 11t.288-.712T10 10m7-1q-.425 0-.712-.288T16 8t.288-.712T17 7t.713.288T18 8t-.288.713T17 9m0 3q-.425 0-.712-.288T16 11t.288-.712T17 10t.713.288T18 11t-.288.713T17 12"/>
  </symbol>

  <symbol id="payment" viewBox="0 0 24 24">
    <path fill="currentColor" d="M3 20q-.825 0-1.412-.587T1 18V8q0-.425.288-.712T2 7t.713.288T3 8v10h16q.425 0 .713.288T20 19t-.288.713T19 20zm4-4q-.825 0-1.412-.587T5 14V6q0-.825.588-1.412T7 4h14q.825 0 1.413.588T23 6v8q0 .825-.587 1.413T21 16zm2-2q0-.825-.587-1.412T7 12v2zm10 0h2v-2q-.825 0-1.412.588T19 14m-5-1q1.25 0 2.125-.875T17 10t-.875-2.125T14 7t-2.125.875T11 10t.875 2.125T14 13M7 8q.825 0 1.413-.587T9 6H7zm14 0V6h-2q0 .825.588 1.413T21 8"/>
  </symbol>

  <symbol id="account_circle" viewBox="0 0 24 24">
    <path fill="currentColor" d="M7.288 13.713Q7 13.425 7 13t.288-.712T8 12t.713.288T9 13t-.288.713T8 14t-.712-.288m4 0Q11 13.426 11 13t.288-.712T12 12t.713.288T13 13t-.288.713T12 14t-.712-.288m4 0Q15 13.426 15 13t.288-.712T16 12t.713.288T17 13t-.288.713T16 14t-.712-.288M5 22q-.825 0-1.412-.587T3 20V6q0-.825.588-1.412T5 4h1V3q0-.425.288-.712T7 2t.713.288T8 3v1h8V3q0-.425.288-.712T17 2t.713.288T18 3v1h1q.825 0 1.413.588T21 6v14q0 .825-.587 1.413T19 22zm0-2h14V10H5z"/>
  </symbol>

  <symbol id="search" viewBox="0 0 24 24">
    <path fill="currentColor" d="M9.5 16q-2.725 0-4.612-1.888T3 9.5t1.888-4.612T9.5 3t4.613 1.888T16 9.5q0 1.1-.35 2.075T14.7 13.3l5.6 5.6q.275.275.275.7t-.275.7t-.7.275t-.7-.275l-5.6-5.6q-.75.6-1.725.95T9.5 16m0-2q1.875 0 3.188-1.312T14 9.5t-1.312-3.187T9.5 5T6.313 6.313T5 9.5t1.313 3.188T9.5 14"/>
  </symbol>

  <symbol id="hourglass_empty" viewBox="0 0 24 24">
    <path fill="currentColor" d="M8 20h8v-3q0-1.65-1.175-2.825T12 13t-2.825 1.175T8 17zm6.825-10.175Q16 8.65 16 7V4H8v3q0 1.65 1.175 2.825T12 11t2.825-1.175M5 22q-.425 0-.712-.288T4 21t.288-.712T5 20h1v-3q0-1.525.713-2.863T8.7 12q-1.275-.8-1.987-2.137T6 7V4H5q-.425 0-.712-.288T4 3t.288-.712T5 2h14q.425 0 .713.288T20 3t-.288.713T19 4h-1v3q0 1.525-.712 2.863T15.3 12q1.275.8 1.988 2.138T18 17v3h1q.425 0 .713.288T20 21t-.288.713T19 22z"/>
  </symbol>

  <symbol id="category" viewBox="0 0 24 24">
    <path fill="currentColor" d="M7.425 9.475L11.15 3.4q.15-.25.375-.363T12 2.925t.475.113t.375.362l3.725 6.075q.15.25.15.525t-.125.5t-.35.363t-.525.137h-7.45q-.3 0-.525-.137T7.4 10.5t-.125-.5t.15-.525M17.5 22q-1.875 0-3.187-1.312T13 17.5t1.313-3.187T17.5 13t3.188 1.313T22 17.5t-1.312 3.188T17.5 22M3 20.5v-6q0-.425.288-.712T4 13.5h6q.425 0 .713.288T11 14.5v6q0 .425-.288.713T10 21.5H4q-.425 0-.712-.288T3 20.5"/>
  </symbol>

  <symbol id="warning" viewBox="0 0 24 24">
    <path fill="currentColor" d="M2.725 21q-.275 0-.5-.137t-.35-.363t-.137-.488t.137-.512l9.25-16q.15-.25.388-.375T12 3t.488.125t.387.375l9.25 16q.15.25.138.513t-.138.487t-.35.363t-.5.137zm9.988-3.287Q13 17.425 13 17t-.288-.712T12 16t-.712.288T11 17t.288.713T12 18t.713-.288m0-3Q13 14.425 13 14v-3q0-.425-.288-.712T12 10t-.712.288T11 11v3q0 .425.288.713T12 15t.713-.288"/>
  </symbol>

  <symbol id="workspace_premium" viewBox="0 0 24 24">
    <path fill="currentColor" d="m12 11.925l-1.7 1.3q-.15.125-.3.013t-.1-.288l.65-2.1l-1.75-1.4q-.125-.125-.075-.287T8.95 9h2.15l.65-2.05q.05-.175.25-.175t.25.175L12.9 9h2.125q.175 0 .238.163t-.063.287l-1.775 1.4l.65 2.1q.05.175-.1.288t-.3-.013zM12 21l-4.675 1.55q-.5.175-.913-.125t-.412-.8v-6.35q-.95-1.05-1.475-2.4T4 10q0-3.35 2.325-5.675T12 2t5.675 2.325T20 10q0 1.525-.525 2.875T18 15.275v6.35q0 .5-.413.8t-.912.125zm4.25-6.75Q18 12.5 18 10t-1.75-4.25T12 4T7.75 5.75T6 10t1.75 4.25T12 16t4.25-1.75"/>
  </symbol>

  <symbol id="person" viewBox="0 0 24 24">
    <path fill="currentColor" d="M9.175 10.825Q8 9.65 8 8t1.175-2.825T12 4t2.825 1.175T16 8t-1.175 2.825T12 12t-2.825-1.175M4 20v-2.8q0-.85.438-1.562T5.6 14.55q1.55-.775 3.15-1.162T12 13t3.25.388t3.15 1.162q.725.375 1.163 1.088T20 17.2V20z"/>
  </symbol>

  <symbol id="pending" viewBox="0 0 24 24">
    <path fill="currentColor" d="M8.063 13.063Q8.5 12.625 8.5 12t-.437-1.062T7 10.5t-1.062.438T5.5 12t.438 1.063T7 13.5t1.063-.437m5 0q.437-.438.437-1.063t-.437-1.062T12 10.5t-1.062.438T10.5 12t.438 1.063T12 13.5t1.063-.437m5 0q.437-.438.437-1.063t-.437-1.062T17 10.5t-1.062.438T15.5 12t.438 1.063T17 13.5t1.063-.437M12 22q-2.075 0-3.9-.788t-3.175-2.137T2.788 15.9T2 12t.788-3.9t2.137-3.175T8.1 2.788T12 2t3.9.788t3.175 2.137T21.213 8.1T22 12t-.788 3.9t-2.137 3.175t-3.175 2.138T12 22"/>
  </symbol>

  <symbol id="card_membership" viewBox="0 0 24 24">
    <path fill="currentColor" d="M4 13v2h16v-2zM4 2h16q.825 0 1.413.588T22 4v11q0 .825-.587 1.413T20 17h-4v3.375q0 .575-.475.863t-.975.037l-2.1-1.05q-.2-.125-.45-.125t-.45.125l-2.1 1.05q-.5.25-.975-.037T8 20.375V17H4q-.825 0-1.412-.587T2 15V4q0-.825.588-1.412T4 2m0 8h16V4H4zm0 5V4z"/>
  </symbol>
  
  <symbol id="event_busy" viewBox="0 0 24 24">
    <path fill="currentColor" d="M12 16.4L10.4 18q-.275.275-.7.275T9 18t-.275-.7t.275-.7l1.6-1.6L9 13.4q-.275-.275-.275-.7T9 12t.7-.275t.7.275l1.6 1.6l1.6-1.6q.275-.275.7-.275T15 12t.275.7t-.275.7L13.4 15l1.6 1.6q.275.275.275.7T15 18t-.7.275t-.7-.275zM5 22q-.825 0-1.412-.587T3 20V6q0-.825.588-1.412T5 4h1V3q0-.425.288-.712T7 2t.713.288T8 3v1h8V3q0-.425.288-.712T17 2t.713.288T18 3v1h1q.825 0 1.413.588T21 6v14q0 .825-.587 1.413T19 22zm0-2h14V10H5z"/>
  </symbol>

  <symbol id="event_repeat" viewBox="0 0 24 24">
    <path fill="currentColor" d="M5 22q-.825 0-1.412-.587T3 20V6q0-.825.588-1.412T5 4h1V3q0-.425.288-.712T7 2t.713.288T8 3v1h8V3q0-.425.288-.712T17 2t.713.288T18 3v1h1q.825 0 1.413.588T21 6v5q0 .425-.288.713T20 12t-.712-.288T19 11v-1H5v10h6q.425 0 .713.288T12 21t-.288.713T11 22zm14 2q-1.6 0-2.863-.888T14.326 20.8q-.125-.275.063-.537t.487-.263q.35 0 .638.213t.462.537q.45.8 1.25 1.275T19 22.5q1.45 0 2.475-1.025T22.5 19t-1.025-2.475T19 15.5q-.725 0-1.35.262t-1.1.738h.7q.325 0 .538.213t.212.537t-.213.538t-.537.212H15q-.425 0-.712-.288T14 17v-2.25q0-.325.213-.537T14.75 14t.538.213t.212.537v.675q.675-.65 1.575-1.037T19 14q2.075 0 3.538 1.463T24 19t-1.463 3.538T19 24"/>
  </symbol>

  <symbol id="cancel" viewBox="0 0 24 24">
    <path fill="currentColor" d="m12 13.4l2.9 2.9q.275.275.7.275t.7-.275t.275-.7t-.275-.7L13.4 12l2.9-2.9q.275-.275.275-.7t-.275-.7t-.7-.275t-.7.275L12 10.6L9.1 7.7q-.275-.275-.7-.275t-.7.275t-.275.7t.275.7l2.9 2.9l-2.9 2.9q-.275.275-.275.7t.275.7t.7.275t.7-.275zm0 8.6q-2.075 0-3.9-.788t-3.175-2.137T2.788 15.9T2 12t.788-3.9t2.137-3.175T8.1 2.788T12 2t3.9.788t3.175 2.137T21.213 8.1T22 12t-.788 3.9t-2.137 3.175t-3.175 2.138T12 22"/>
  </symbol>

  <symbol id="logout" viewBox="0 0 24 24">
    <path fill="currentColor" d="M5 21q-.825 0-1.412-.587T3 19V5q0-.825.588-1.412T5 3h6q.425 0 .713.288T12 4t-.288.713T11 5H5v14h6q.425 0 .713.288T12 20t-.288.713T11 21zm12.175-8H10q-.425 0-.712-.288T9 12t.288-.712T10 11h7.175L15.3 9.125q-.275-.275-.275-.675t.275-.7t.7-.313t.725.288L20.3 11.3q.3.3.3.7t-.3.7l-3.575 3.575q-.3.3-.712.288t-.713-.313q-.275-.3-.262-.712t.287-.688z"/>
  </symbol>

  <symbol id="schedule" viewBox="0 0 24 24">
    <path fill="currentColor" d="M13 11.6V8q0-.425-.288-.712T12 7t-.712.288T11 8v3.975q0 .2.075.388t.225.337l3.3 3.3q.275.275.7.275T16 16t.275-.7t-.275-.7zM12 22q-2.075 0-3.9-.788t-3.175-2.137T2.788 15.9T2 12t.788-3.9t2.137-3.175T8.1 2.788T12 2t3.9.788t3.175 2.137T21.213 8.1T22 12t-.788 3.9t-2.137 3.175t-3.175 2.138T12 22m0-2q3.325 0 5.663-2.337T20 12t-2.337-5.663T12 4T6.337 6.338T4 12t2.338 5.663T12 20"/>
  </symbol>

  <symbol id="home" viewBox="0 0 24 24">
    <path fill="currentColor" d="M4 19v-9q0-.475.213-.9t.587-.7l6-4.5q.525-.4 1.2-.4t1.2.4l6 4.5q.375.275.588.7T20 10v9q0 .825-.588 1.413T18 21h-3q-.425 0-.712-.288T14 20v-5q0-.425-.288-.712T13 14h-2q-.425 0-.712.288T10 15v5q0 .425-.288.713T9 21H6q-.825 0-1.412-.587T4 19"/>
  </symbol>

  <symbol id="radio_button_checked" viewBox="0 0 24 24">
    <path fill="currentColor" d="M15.538 15.538Q17 14.075 17 12t-1.463-3.537T12 7T8.463 8.463T7 12t1.463 3.538T12 17t3.538-1.463M12 22q-2.075 0-3.9-.788t-3.175-2.137T2.788 15.9T2 12t.788-3.9t2.137-3.175T8.1 2.788T12 2t3.9.788t3.175 2.137T21.213 8.1T22 12t-.788 3.9t-2.137 3.175t-3.175 2.138T12 22m0-2q3.35 0 5.675-2.325T20 12t-2.325-5.675T12 4T6.325 6.325T4 12t2.325 5.675T12 20"/>
  </symbol>

  <symbol id="receipt" viewBox="0 0 24 24">
    <path fill="currentColor" d="M3 20.8V2.6q0-.175.15-.237t.275.062l.725.725q.15.15.35.15t.35-.15l.8-.8Q5.8 2.2 6 2.2t.35.15l.8.8q.15.15.35.15t.35-.15l.8-.8Q8.8 2.2 9 2.2t.35.15l.8.8q.15.15.35.15t.35-.15l.8-.8q.15-.15.35-.15t.35.15l.8.8q.15.15.35.15t.35-.15l.8-.8q.15-.15.35-.15t.35.15l.8.8q.15.15.35.15t.35-.15l.8-.8q.15-.15.35-.15t.35.15l.8.8q.15.15.35.15t.35-.15l.725-.725q.125-.125.275-.062T21 2.6v18.2q0 .35-.3.475t-.55-.125l-.3-.3q-.15-.15-.35-.15t-.35.15l-.8.8q-.15.15-.35.15t-.35-.15l-.8-.8q-.15-.15-.35-.15t-.35.15l-.8.8q-.15.15-.35.15t-.35-.15l-.8-.8q-.15-.15-.35-.15t-.35.15l-.8.8q-.15.15-.35.15t-.35-.15l-.8-.8q-.15-.15-.35-.15t-.35.15l-.8.8q-.15.15-.35.15t-.35-.15l-.8-.8q-.15-.15-.35-.15t-.35.15l-.8.8q-.15.15-.35.15t-.35-.15l-.8-.8q-.15-.15-.35-.15t-.35.15l-.3.3q-.25.25-.55.125T3 20.8M7 17h10q.425 0 .713-.288T18 16t-.288-.712T17 15H7q-.425 0-.712.288T6 16t.288.713T7 17m0-4h10q.425 0 .713-.288T18 12t-.288-.712T17 11H7q-.425 0-.712.288T6 12t.288.713T7 13m0-4h10q.425 0 .713-.288T18 8t-.288-.712T17 7H7q-.425 0-.712.288T6 8t.288.713T7 9"/>
  </symbol>

  <symbol id="autorenew" viewBox="0 0 24 24">
    <path fill="currentColor" d="M6 12.05q0 .4.05.788t.175.762q.125.425-.025.813t-.525.562q-.4.2-.787.038t-.513-.588q-.2-.575-.288-1.175T4 12.05q0-3.35 2.325-5.7T12 4h.175l-.9-.9Q11 2.825 11 2.4t.275-.7t.7-.275t.7.275l2.6 2.6q.3.3.3.7t-.3.7l-2.6 2.6q-.275.275-.7.275t-.7-.275T11 7.6t.275-.7l.9-.9H12Q9.5 6 7.75 7.763T6 12.05m12-.1q0-.4-.05-.787t-.175-.763q-.125-.425.025-.812t.525-.563q.4-.2.787-.037t.513.587q.2.575.288 1.175t.087 1.2q0 3.35-2.325 5.7T12 20h-.175l.9.9q.275.275.275.7t-.275.7t-.7.275t-.7-.275l-2.6-2.6q-.3-.3-.3-.7t.3-.7l2.6-2.6q.275-.275.7-.275t.7.275t.275.7t-.275.7l-.9.9H12q2.5 0 4.25-1.762T18 11.95"/>
  </symbol>

  <symbol id="filter_alt" viewBox="0 0 24 24">
    <path fill="currentColor" d="M11 20q-.425 0-.712-.288T10 19v-6L4.2 5.6q-.375-.5-.112-1.05T5 4h14q.65 0 .913.55T19.8 5.6L14 13v6q0 .425-.288.713T13 20z"/>
  </symbol>

  <symbol id="calendar_today" viewBox="0 0 24 24">
    <path fill="currentColor" d="M5 22q-.825 0-1.412-.587T3 20V6q0-.825.588-1.412T5 4h1V3q0-.425.288-.712T7 2t.713.288T8 3v1h8V3q0-.425.288-.712T17 2t.713.288T18 3v1h1q.825 0 1.413.588T21 6v14q0 .825-.587 1.413T19 22zm0-2h14V10H5z"/>
  </symbol>

  <symbol id="event" viewBox="0 0 24 24">
    <path fill="currentColor" d="M12.725 17.275Q12 16.55 12 15.5t.725-1.775T14.5 13t1.775.725T17 15.5t-.725 1.775T14.5 18t-1.775-.725M5 22q-.825 0-1.412-.587T3 20V6q0-.825.588-1.412T5 4h1V3q0-.425.288-.712T7 2t.713.288T8 3v1h8V3q0-.425.288-.712T17 2t.713.288T18 3v1h1q.825 0 1.413.588T21 6v14q0 .825-.587 1.413T19 22zm0-2h14V10H5z"/>
  </symbol>

  <symbol id="delete" viewBox="0 0 24 24">
    <path fill="currentColor" d="M7 21q-.825 0-1.412-.587T5 19V6q-.425 0-.712-.288T4 5t.288-.712T5 4h4q0-.425.288-.712T10 3h4q.425 0 .713.288T15 4h4q.425 0 .713.288T20 5t-.288.713T19 6v13q0 .825-.587 1.413T17 21zm3.713-4.288Q11 16.426 11 16V9q0-.425-.288-.712T10 8t-.712.288T9 9v7q0 .425.288.713T10 17t.713-.288m4 0Q15 16.426 15 16V9q0-.425-.288-.712T14 8t-.712.288T13 9v7q0 .425.288.713T14 17t.713-.288"/>
  </symbol>
</svg>
