<svg xmlns="http://www.w3.org/2000/svg" style="display:none">
  <symbol id="email" viewBox="0 0 24 24">
    <path fill="currentColor" 
        d="M20 4H4c-1.1 0-1.99.9-1.99 2L2 18c0 1.1.9 2 2 2h16c1.1 0 2-.9 2-2V6c0-1.1-.9-2-2-2zm0 4l-8 5-8-5V6l8 5 8-5v2z" />
  </symbol>

  <symbol id="lock" viewBox="0 0 24 24">
    <path fill="currentColor" d="M6 22q-.825 0-1.412-.587T4 20V10q0-.825.588-1.412T6 8h1V6q0-2.075 1.463-3.537T12 1t3.538 1.463T17 6v2h1q.825 0 1.413.588T20 10v10q0 .825-.587 1.413T18 22zm7.413-5.587Q14 15.825 14 15t-.587-1.412T12 13t-1.412.588T10 15t.588 1.413T12 17t1.413-.587M9 8h6V6q0-1.25-.875-2.125T12 3t-2.125.875T9 6z"/>
  </symbol>

  <symbol id="visibility" viewBox="0 0 24 24">
    <path fill="currentColor" d="M15.188 14.688Q16.5 13.375 16.5 11.5t-1.312-3.187T12 7T8.813 8.313T7.5 11.5t1.313 3.188T12 16t3.188-1.312m-5.1-1.276Q9.3 12.625 9.3 11.5t.788-1.912T12 8.8t1.913.788t.787 1.912t-.787 1.913T12 14.2t-1.912-.787m-4.2 3.787q-2.763-1.8-4.363-4.75q-.125-.225-.187-.462t-.063-.488t.063-.488t.187-.462q1.6-2.95 4.363-4.75T12 4t6.113 1.8t4.362 4.75q.125.225.188.463t.062.487t-.062.488t-.188.462q-1.6 2.95-4.362 4.75T12 19t-6.113-1.8"/>
  </symbol>

  <symbol id="visibility_off" viewBox="0 0 24 24">
    <path fill="currentColor" d="m19.1 21.9l-3.5-3.45q-.875.275-1.775.413T12 19q-3.35 0-6.125-1.8t-4.35-4.75q-.125-.225-.187-.462t-.063-.488t.063-.488t.187-.462q.55-.975 1.175-1.9T4.15 7L2.075 4.9Q1.8 4.625 1.8 4.213t.3-.713q.275-.275.7-.275t.7.275l17 17q.275.275.288.688t-.288.712q-.275.275-.7.275t-.7-.275M12 16q.275 0 .525-.025t.5-.1l-5.4-5.4q-.075.25-.1.5T7.5 11.5q0 1.875 1.313 3.188T12 16m0-12q3.35 0 6.138 1.813t4.362 4.762q.125.2.188.438t.062.487t-.05.488t-.175.437q-.475.925-1.062 1.75t-1.313 1.55q-.35.35-.825.325t-.825-.375l-2-2q-.175-.175-.225-.413t.025-.487q.1-.325.15-.625t.05-.65q0-1.875-1.312-3.187T12 7q-.35 0-.65.05t-.625.15q-.25.075-.5.025T9.8 7l-.825-.825q-.475-.475-.312-1.1t.787-.8q.625-.125 1.263-.2T12 4m1.975 5.65q.275.325.462.713t.238.812q.025.2-.15.275t-.325-.075l-2.05-2.05Q12 9.175 12.088 9t.287-.175q.475.05.875.263t.725.562"/>
  </symbol>

  <symbol id="error" viewBox="0 0 24 24">
    <path fill="currentColor" d="M12.713 16.713Q13 16.425 13 16t-.288-.712T12 15t-.712.288T11 16t.288.713T12 17t.713-.288m0-4Q13 12.425 13 12V8q0-.425-.288-.712T12 7t-.712.288T11 8v4q0 .425.288.713T12 13t.713-.288M12 22q-2.075 0-3.9-.788t-3.175-2.137T2.788 15.9T2 12t.788-3.9t2.137-3.175T8.1 2.788T12 2t3.9.788t3.175 2.137T21.213 8.1T22 12t-.788 3.9t-2.137 3.175t-3.175 2.138T12 22"/>
  </symbol>

  <symbol id="mark_email_read" viewBox="0 0 24 24">
    <path fill="currentColor" d="M4 20q-.825 0-1.412-.587T2 18V6q0-.825.588-1.412T4 4h16q.825 0 1.413.588T22 6v3.525q0 .4-.15.763t-.425.637l-5.45 5.45l-1.45-1.45q-.575-.575-1.425-.575t-1.425.575L10.3 16.3q-.6.6-.488 1.475t.688 1.55q.175.2.075.438T10.2 20zm8-9L5.3 6.8q-.425-.275-.862-.025T4 7.525q0 .225.1.413t.3.312l7.075 4.425q.25.15.525.15t.525-.15L19.6 8.25q.2-.125.3-.312t.1-.413q0-.5-.437-.75T18.7 6.8zm3.95 8.2l4.95-4.95q.275-.275.7-.275t.7.275t.275.7t-.275.7l-5.65 5.65q-.15.15-.325.225t-.375.075t-.375-.075t-.325-.225l-2.85-2.85q-.275-.275-.275-.7t.275-.7t.7-.275t.7.275z"/>
  </symbol>

  <symbol id="refresh" viewBox="0 0 24 24">
    <path fill="currentColor" d="M12 20q-3.35 0-5.675-2.325T4 12t2.325-5.675T12 4q1.725 0 3.3.712T18 6.75V5q0-.425.288-.712T19 4t.713.288T20 5v5q0 .425-.288.713T19 11h-5q-.425 0-.712-.288T13 10t.288-.712T14 9h3.2q-.8-1.4-2.187-2.2T12 6Q9.5 6 7.75 7.75T6 12t1.75 4.25T12 18q1.7 0 3.113-.862t2.187-2.313q.2-.35.563-.487t.737-.013q.4.125.575.525t-.025.75q-1.025 2-2.925 3.2T12 20"/>
  </symbol>
  
  <symbol id="check_circle" viewBox="0 0 24 24">
    <path fill="currentColor" d="m10.6 13.8l-2.15-2.15q-.275-.275-.7-.275t-.7.275t-.275.7t.275.7L9.9 15.9q.3.3.7.3t.7-.3l5.65-5.65q.275-.275.275-.7t-.275-.7t-.7-.275t-.7.275zM12 22q-2.075 0-3.9-.788t-3.175-2.137T2.788 15.9T2 12t.788-3.9t2.137-3.175T8.1 2.788T12 2t3.9.788t3.175 2.137T21.213 8.1T22 12t-.788 3.9t-2.137 3.175t-3.175 2.138T12 22"/>
  </symbol>

  <symbol id="lock_reset" viewBox="0 0 24 24">
    <path fill="currentColor" d="M21.213 15.9q-.788 1.825-2.138 3.175T15.9 21.213T12 22q-1.9 0-3.613-.675t-3.05-1.862t-2.187-2.8t-1.075-3.513q-.05-.475.225-.737t.65-.313t.725.163t.4.737q.375 3.025 2.638 5.025t5.287 2q3.35 0 5.675-2.325T20 12.025T17.675 6.35T12 4.025q-2.225 0-4.038 1.088T5.1 8H7q.425 0 .713.288T8 9t-.288.713T7 10H3q-.425 0-.712-.288T2 9V5q0-.425.288-.712T3 4t.713.288T4 5v1q1.375-1.825 3.45-2.912T12 2q2.075 0 3.9.788t3.175 2.137T21.213 8.1T22 12t-.788 3.9M10 16q-.425 0-.712-.288T9 15v-3q0-.425.288-.712T10 11v-1q0-.825.588-1.412T12 8t1.413.588T14 10v1q.425 0 .713.288T15 12v3q0 .425-.288.713T14 16zm1-5h2v-1q0-.425-.288-.712T12 9t-.712.288T11 10z"/>
  </symbol>

  <symbol id="send" viewBox="0 0 24 24">
    <path fill="currentColor" d="M3 20v-6l8-2l-8-2V4l19 8z"/>
  </symbol>

  <symbol id="arrow_back" viewBox="0 0 24 24">
    <path fill="currentColor" d="m7.825 13l4.9 4.9q.3.3.288.7t-.313.7q-.3.275-.7.288t-.7-.288l-6.6-6.6q-.15-.15-.213-.325T4.426 12t.063-.375t.212-.325l6.6-6.6q.275-.275.688-.275t.712.275q.3.3.3.713t-.3.712L7.825 11H19q.425 0 .713.288T20 12t-.288.713T19 13z"/>
  </symbol>

  <symbol id="account_balance_wallet" viewBox="0 0 24 24">
    <path fill="currentColor" d="M5 21q-.825 0-1.412-.587T3 19V5q0-.825.588-1.412T5 3h14q.825 0 1.413.588T21 5h-8q-1.775 0-2.887 1.113T9 9v6q0 1.775 1.113 2.888T13 19h8q0 .825-.587 1.413T19 21zm8-4q-.825 0-1.412-.587T11 15V9q0-.825.588-1.412T13 7h7q.825 0 1.413.588T22 9v6q0 .825-.587 1.413T20 17zm4.075-3.925Q17.5 12.65 17.5 12t-.425-1.075T16 10.5t-1.075.425T14.5 12t.425 1.075T16 13.5t1.075-.425"/>
  </symbol>

  <symbol id="expand_more" viewBox="0 0 24 24">
    <path fill="currentColor" d="M11.625 14.913q-.175-.063-.325-.213l-4.6-4.6q-.275-.275-.275-.7t.275-.7t.7-.275t.7.275l3.9 3.9l3.9-3.9q.275-.275.7-.275t.7.275t.275.7t-.275.7l-4.6 4.6q-.15.15-.325.213t-.375.062t-.375-.062"/>
  </symbol>
  
  <symbol id="person_add" viewBox="0 0 24 24">
    <path fill="currentColor" d="M18 11h-2q-.425 0-.712-.288T15 10t.288-.712T16 9h2V7q0-.425.288-.712T19 6t.713.288T20 7v2h2q.425 0 .713.288T23 10t-.288.713T22 11h-2v2q0 .425-.288.713T19 14t-.712-.288T18 13zm-11.825-.175Q5 9.65 5 8t1.175-2.825T9 4t2.825 1.175T13 8t-1.175 2.825T9 12t-2.825-1.175M1 18v-.8q0-.85.438-1.562T2.6 14.55q1.55-.775 3.15-1.162T9 13t3.25.388t3.15 1.162q.725.375 1.163 1.088T17 17.2v.8q0 .825-.587 1.413T15 20H3q-.825 0-1.412-.587T1 18"/>
  </symbol>

  <symbol id="vpn_key" viewBox="0 0 24 24">
    <path fill="currentColor" d="M7 18q-2.5 0-4.25-1.75T1 12t1.75-4.25T7 6q2.025 0 3.538 1.138T12.65 10H21q.825 0 1.413.588T23 12q0 .9-.625 1.45T21 14v2q0 .825-.587 1.413T19 18t-1.412-.587T17 16v-2h-4.35q-.6 1.725-2.113 2.863T7 18m0-4q.825 0 1.413-.587T9 12t-.587-1.412T7 10t-1.412.588T5 12t.588 1.413T7 14"/>
  </symbol>

  <symbol id="check" viewBox="0 0 24 24">
    <path fill="currentColor" d="m9.55 15.15l8.475-8.475q.3-.3.7-.3t.7.3t.3.713t-.3.712l-9.175 9.2q-.3.3-.7.3t-.7-.3L4.55 13q-.3-.3-.288-.712t.313-.713t.713-.3t.712.3z"/>
  </symbol>

  <symbol id="error_outline" viewBox="0 0 24 24">
    <path fill="currentColor" d="M12.713 16.713Q13 16.425 13 16t-.288-.712T12 15t-.712.288T11 16t.288.713T12 17t.713-.288m0-4Q13 12.425 13 12V8q0-.425-.288-.712T12 7t-.712.288T11 8v4q0 .425.288.713T12 13t.713-.288M12 22q-2.075 0-3.9-.788t-3.175-2.137T2.788 15.9T2 12t.788-3.9t2.137-3.175T8.1 2.788T12 2t3.9.788t3.175 2.137T21.213 8.1T22 12t-.788 3.9t-2.137 3.175t-3.175 2.138T12 22m0-2q3.35 0 5.675-2.325T20 12t-2.325-5.675T12 4T6.325 6.325T4 12t2.325 5.675T12 20m0-8"/>
  </symbol>

  <symbol id="info" viewBox="0 0 24 24">
    <path fill="currentColor" d="M12.713 16.713Q13 16.425 13 16v-4q0-.425-.288-.712T12 11t-.712.288T11 12v4q0 .425.288.713T12 17t.713-.288m0-8Q13 8.425 13 8t-.288-.712T12 7t-.712.288T11 8t.288.713T12 9t.713-.288M12 22q-2.075 0-3.9-.788t-3.175-2.137T2.788 15.9T2 12t.788-3.9t2.137-3.175T8.1 2.788T12 2t3.9.788t3.175 2.137T21.213 8.1T22 12t-.788 3.9t-2.137 3.175t-3.175 2.138T12 22"/>
  </symbol>

  <symbol id="login" viewBox="0 0 24 24">
    <path fill="currentColor" d="M13 21q-.425 0-.712-.288T12 20t.288-.712T13 19h6V5h-6q-.425 0-.712-.288T12 4t.288-.712T13 3h6q.825 0 1.413.588T21 5v14q0 .825-.587 1.413T19 21zm-1.825-8H4q-.425 0-.712-.288T3 12t.288-.712T4 11h7.175L9.3 9.125q-.275-.275-.275-.675t.275-.7t.7-.313t.725.288L14.3 11.3q.3.3.3.7t-.3.7l-3.575 3.575q-.3.3-.712.288T9.3 16.25q-.275-.3-.262-.712t.287-.688z"/>
  </symbol>

  <symbol id="verified" viewBox="0 0 24 24">
    <path fill="currentColor" d="M10.95 12.7L9.5 11.275Q9.225 11 8.813 11t-.713.3q-.275.275-.275.7t.275.7l2.15 2.15q.3.3.7.3t.7-.3l4.25-4.25q.3-.3.287-.7t-.287-.7q-.3-.3-.712-.312t-.713.287zm-2.8 9.05L6.7 19.3l-2.75-.6q-.375-.075-.6-.387t-.175-.688L3.45 14.8l-1.875-2.15q-.25-.275-.25-.65t.25-.65L3.45 9.2l-.275-2.825q-.05-.375.175-.688t.6-.387l2.75-.6l1.45-2.45q.2-.325.55-.438t.7.038l2.6 1.1l2.6-1.1q.35-.15.7-.038t.55.438L17.3 4.7l2.75.6q.375.075.6.388t.175.687L20.55 9.2l1.875 2.15q.25.275.25.65t-.25.65L20.55 14.8l.275 2.825q.05.375-.175.688t-.6.387l-2.75.6l-1.45 2.45q-.2.325-.55.438t-.7-.038l-2.6-1.1l-2.6 1.1q-.35.15-.7.038t-.55-.438"/>
  </symbol>
</svg>
